<?xml version="1.0" encoding="utf-8"?>
<!-- Generator: Adobe Illustrator 27.5.0, SVG Export Plug-In . SVG Version: 6.00 Build 0)  -->
<svg version="1.1" id="Layer_1" xmlns="http://www.w3.org/2000/svg" xmlns:xlink="http://www.w3.org/1999/xlink" x="0px" y="0px"
	 width="331.1px" height="111.9px" viewBox="0 0 331.1 111.9" style="enable-background:new 0 0 331.1 111.9;" xml:space="preserve"
	>
<style type="text/css">
	.st0{fill:none;stroke:#000000;stroke-linecap:round;stroke-linejoin:round;stroke-miterlimit:10;}
	.st1{fill:none;stroke:#4D4D4D;stroke-width:0.75;stroke-linecap:round;stroke-linejoin:round;}
	.st2{fill:#4D4D4D;}
	.st3{fill:none;stroke:#4D4D4D;stroke-width:0.75;stroke-linecap:round;stroke-linejoin:round;stroke-dasharray:2.1734,2.1734;}
	.st4{font-family:'Times-BoldItalic';}
	.st5{font-size:12px;}
	.st6{fill:#29AAE1;}
	.st7{fill:#009145;}
	
		.st8{fill:none;stroke:#4D4D4D;stroke-width:0.75;stroke-linecap:round;stroke-linejoin:round;stroke-miterlimit:10;stroke-dasharray:2;}
	.st9{fill:none;stroke:#009145;stroke-linecap:round;stroke-linejoin:round;stroke-miterlimit:10;}
	.st10{fill:#FFFFFF;stroke:#000000;stroke-linecap:round;stroke-linejoin:round;stroke-miterlimit:10;}
	.st11{fill:none;stroke:#29AAE1;stroke-width:0.75;stroke-linecap:round;stroke-linejoin:round;}
</style>
<g>
	<g>
		<polygon class="st0" points="309.1,32.1 297.8,48.1 296,43.6 307.4,27.6 		"/>
	</g>
	<g>
		<polygon class="st0" points="310.9,36.6 299.5,52.6 297.8,48.1 309.1,32.1 		"/>
	</g>
</g>
<g>
	<path class="st0" d="M81.7,77.6C215.7,77,244,65.2,279.5,50.3c5.2-2.2,10.6-4.5,16.6-6.8l11.3-16c-5.9,2.3-11.3,4.6-16.6,6.8
		C255.3,49.2,227.1,61,93,61.6"/>
</g>
<path class="st0" d="M297.8,48.1c-47.3,18.4-62.1,34.4-227.1,34.4v-4.8c143.6,0,172.3-12,208.8-27.3c5.2-2.2,10.6-4.5,16.6-6.8
	C296,43.6,297.8,48.1,297.8,48.1z"/>
<g>
	<g>
		<path class="st1" d="M184.2,66c54.9-4.7,75.9-13.5,100.5-23.7c4.3-1.8,8.7-3.7,13.5-5.5"/>
		<g>
			<polygon class="st2" points="297.9,38.1 301.3,35.5 297.1,36.1 			"/>
		</g>
	</g>
</g>
<g>
	<g>
		<path class="st1" d="M90.7,69.5c36.2-0.2,64.5-1.3,87.3-3"/>
		<g>
			<polygon class="st2" points="91.5,70.6 87.4,69.6 91.4,68.4 			"/>
		</g>
	</g>
</g>
<path class="st0" d="M297.8,48.1c-47.3,18.4-62.1,34.4-227.1,34.4v4.8c145.5,0,175.1-12.4,212.5-28c5.2-2.2,10.5-4.4,16.4-6.7
	C299.5,52.6,297.8,48.1,297.8,48.1z"/>
<polygon class="st0" points="70.7,74.4 81.7,74.4 93,58.5 82,58.5 "/>
<polygon class="st0" points="70.7,74.4 70.7,77.6 81.7,77.6 93,61.6 93,58.5 81.7,74.4 "/>
<line class="st0" x1="81.7" y1="74.4" x2="81.7" y2="77.6"/>
<g>
	<g>
		<line class="st1" x1="314.1" y1="25.2" x2="313.5" y2="26"/>
		<line class="st3" x1="312.2" y1="27.7" x2="310.3" y2="30.4"/>
		<line class="st1" x1="309.7" y1="31.3" x2="309.1" y2="32.1"/>
	</g>
</g>
<g>
	<g>
		<line class="st1" x1="312.3" y1="20.7" x2="311.7" y2="21.5"/>
		<line class="st3" x1="310.5" y1="23.2" x2="308.6" y2="25.9"/>
		<line class="st1" x1="308" y1="26.8" x2="307.4" y2="27.6"/>
	</g>
</g>
<g>
	<g>
		<line class="st1" x1="305.8" y1="13.6" x2="308.6" y2="21"/>
		<g>
			<polygon class="st2" points="307.4,20.7 309.9,24.1 309.4,19.9 			"/>
		</g>
	</g>
</g>
<g>
	<g>
		<line class="st1" x1="315.5" y1="38.6" x2="312.8" y2="31.7"/>
		<g>
			<polygon class="st2" points="314.1,32 311.6,28.6 312.1,32.8 			"/>
		</g>
	</g>
</g>
<text transform="matrix(1 0 0 1 304.34 10.7578)" class="st2 st4 st5">t</text>
<text transform="matrix(1 0 0 1 285.882 21.2556)" class="st6 st4 st5">F</text>
<text transform="matrix(1 0 0 1 313.5441 70.2966)" class="st2 st4 st5">Δx</text>
<text transform="matrix(1 0 0 1 52.8852 71.6485)" class="st2 st4 st5">w</text>
<text transform="matrix(1 0 0 1 6.0101 80.7242)" class="st7 st4 st5">V</text>
<text transform="matrix(1 0 0 1 179.0035 70.9078)" class="st2 st4 st5">l</text>
<line class="st8" x1="77.2" y1="61.6" x2="61.5" y2="61.6"/>
<line class="st8" x1="70.7" y1="77.6" x2="50.6" y2="77.6"/>
<line class="st8" x1="318.4" y1="82.4" x2="70.3" y2="82.4"/>
<line class="st8" x1="318.4" y1="48.1" x2="297.8" y2="48.1"/>
<g>
	<g>
		<line class="st1" x1="70.2" y1="64.3" x2="62.7" y2="74.9"/>
		<g>
			<polygon class="st2" points="68.9,64.3 72.1,61.6 70.6,65.6 			"/>
		</g>
		<g>
			<polygon class="st2" points="62.2,73.6 60.8,77.6 64,74.9 			"/>
		</g>
	</g>
</g>
<g>
	<g>
		<line class="st1" x1="309.1" y1="51.4" x2="309.1" y2="79.1"/>
		<g>
			<polygon class="st2" points="308,52.1 309.1,48.1 310.2,52.1 			"/>
		</g>
		<g>
			<polygon class="st2" points="308,78.4 309.1,82.4 310.2,78.4 			"/>
		</g>
	</g>
</g>
<polyline class="st9" points="79,67.7 79,45.6 26.7,45.6 "/>
<polyline class="st9" points="79,90.4 79,108 26.7,108 "/>
<g>
	<line class="st9" x1="26.7" y1="66.5" x2="26.7" y2="45.6"/>
	<line class="st9" x1="26.7" y1="107.5" x2="26.7" y2="88.6"/>
	<circle class="st9" cx="26.7" cy="77.5" r="11.1"/>
	<g>
		<line class="st9" x1="26.7" y1="71.1" x2="26.7" y2="75.6"/>
		<line class="st9" x1="28.9" y1="73.3" x2="24.4" y2="73.3"/>
		<line class="st9" x1="28.9" y1="84" x2="24.4" y2="84"/>
	</g>
</g>
<polygon class="st10" points="70.7,87.3 70.7,90.4 81.7,90.4 84,87.2 81.7,87.2 "/>
<line class="st0" x1="81.7" y1="90.4" x2="81.7" y2="87.2"/>
<g>
	<g>
		<line class="st11" x1="301.3" y1="35.5" x2="295.3" y2="20"/>
		<g>
			<polygon class="st6" points="297.3,20.6 295.5,20.6 294.2,21.8 294.3,17.5 			"/>
		</g>
	</g>
</g>
</svg>
