<?xml version="1.0" encoding="utf-8"?>
<!-- Generator: Adobe Illustrator 27.8.1, SVG Export Plug-In . SVG Version: 6.00 Build 0)  -->
<svg version="1.1" id="Layer_1" xmlns="http://www.w3.org/2000/svg" xmlns:xlink="http://www.w3.org/1999/xlink" x="0px" y="0px"
	 width="669.1px" height="408.7px" viewBox="0 0 669.1 408.7" style="enable-background:new 0 0 669.1 408.7;" xml:space="preserve"
	>
<style type="text/css">
	.st0{fill:none;stroke:#29AAE1;stroke-width:2;stroke-linejoin:round;stroke-miterlimit:10;}
	.st1{fill:none;stroke:#000000;stroke-width:2;stroke-miterlimit:10;}
	.st2{font-family:'TimesNewRomanPSMT';}
	.st3{font-size:21px;}
	.st4{fill:none;}
	.st5{fill:#FF0000;}
	.st6{fill:#0000FF;}
	.st7{fill:#29AAE1;}
	.st8{fill:#EC1C24;}
</style>
<g>
	<path class="st0" d="M86.6,295.2h400.3v42.1"/>
</g>
<g>
	<g>
		<polyline class="st1" points="86.6,17.1 86.6,337.2 640.2,337.2 		"/>
		<g>
			<polygon points="80.2,28.9 82.1,29.6 86.6,17.3 91.1,29.6 92.9,28.9 86.6,11.4 			"/>
		</g>
		<g>
			<polygon points="628.3,343.6 627.6,341.7 640,337.2 627.6,332.7 628.3,330.8 645.8,337.2 			"/>
		</g>
	</g>
</g>
<line class="st1" x1="86.6" y1="77" x2="564.1" y2="337.2"/>
<text transform="matrix(6.123234e-17 -1 1 6.123234e-17 68.5447 229.2698)" class="st2 st3">Torque (Nm)</text>
<text transform="matrix(1 0 0 1 247.947 387.4994)" class="st2 st3">Rotational Speed (rad/s)</text>
<text transform="matrix(1 0 0 1 19.1263 82.7872)" class="st2 st3">0.136</text>
<text transform="matrix(1 0 0 1 546.2466 367.2393)" class="st2 st3">543</text>
<text transform="matrix(1 0 0 1 469.5261 367.2393)" class="st2 st3">456</text>
<line class="st1" x1="86.6" y1="77" x2="76.6" y2="77"/>
<line class="st1" x1="86.6" y1="295" x2="76.6" y2="295"/>
<line class="st1" x1="564.1" y1="337.2" x2="564.1" y2="347"/>
<line class="st1" x1="486.9" y1="337.2" x2="486.9" y2="347"/>
<line class="st4" x1="86.6" y1="337.2" x2="409.3" y2="337.2"/>
<line class="st4" x1="409.3" y1="337.2" x2="409.3" y2="252.9"/>
<line class="st4" x1="409.3" y1="252.9" x2="86.6" y2="252.9"/>
<line class="st4" x1="86.6" y1="77" x2="86.6" y2="337.2"/>
<g transform="translate(174.8895,112.999)">
	<ellipse class="st5" cx="-12.1" cy="5.5" rx="2.1" ry="1.5"/>
	<ellipse class="st6" cx="312" cy="182.2" rx="2.1" ry="1.5"/>
</g>
<g transform="translate(174.8895,112.999)">
	<ellipse class="st5" cx="-12.1" cy="5.5" rx="2.1" ry="1.5"/>
	<ellipse class="st6" cx="312" cy="182.2" rx="2.1" ry="1.5"/>
</g>
<g transform="translate(174.8895,112.999)">
	<ellipse class="st5" cx="-12.1" cy="5.5" rx="2.1" ry="1.5"/>
	<ellipse class="st6" cx="312" cy="182.2" rx="2.1" ry="1.5"/>
</g>
<g transform="translate(174.8895,112.999)">
	<ellipse class="st5" cx="-12.1" cy="5.5" rx="2.1" ry="1.5"/>
	<ellipse class="st6" cx="312" cy="182.2" rx="2.1" ry="1.5"/>
</g>
<g transform="translate(174.8895,112.999)">
	<ellipse class="st5" cx="-12.1" cy="5.5" rx="2.1" ry="1.5"/>
	<ellipse class="st6" cx="312" cy="182.2" rx="2.1" ry="1.5"/>
</g>
<g transform="translate(174.8895,112.999)">
	<ellipse class="st5" cx="-12.1" cy="5.5" rx="2.1" ry="1.5"/>
	<ellipse class="st6" cx="312" cy="182.2" rx="2.1" ry="1.5"/>
</g>
<g transform="translate(174.8895,112.999)">
	<ellipse class="st5" cx="-12.1" cy="5.5" rx="2.1" ry="1.5"/>
	<ellipse class="st6" cx="312" cy="182.2" rx="2.1" ry="1.5"/>
</g>
<g transform="translate(174.8895,112.999)">
	<ellipse class="st5" cx="-12.1" cy="5.5" rx="2.1" ry="1.5"/>
	<ellipse class="st6" cx="312" cy="182.2" rx="2.1" ry="1.5"/>
</g>
<g transform="translate(174.8895,112.999)">
	<ellipse class="st5" cx="-12.1" cy="5.5" rx="2.1" ry="1.5"/>
	<ellipse class="st6" cx="312" cy="182.2" rx="2.1" ry="1.5"/>
</g>
<g transform="translate(174.8895,112.999)">
	<ellipse class="st7" cx="-12.1" cy="5.5" rx="2.1" ry="1.5"/>
	<ellipse class="st7" cx="312" cy="182.2" rx="2.1" ry="1.5"/>
	<circle class="st7" cx="312" cy="182.2" r="3.6"/>
</g>
<circle class="st8" cx="162.8" cy="118.5" r="3.6"/>
<text transform="matrix(1 0 0 1 22.2734 300.549)" class="st2 st3">0.022</text>
</svg>
