<?xml version="1.0" encoding="utf-8"?>
<!-- Generator: Adobe Illustrator 27.5.0, SVG Export Plug-In . SVG Version: 6.00 Build 0)  -->
<svg version="1.1" id="Layer_1" xmlns="http://www.w3.org/2000/svg" xmlns:xlink="http://www.w3.org/1999/xlink" x="0px" y="0px"
	 width="808.4px" height="358.3px" viewBox="0 0 808.4 358.3" style="enable-background:new 0 0 808.4 358.3;" xml:space="preserve"
	>
<style type="text/css">
	.st0{fill:none;stroke:#000000;stroke-miterlimit:10;}
	.st1{font-family:'SupremeLLTT-Light';}
	.st2{font-size:17px;}
</style>
<image style="display:none;overflow:visible;" width="252" height="266" xlink:href="../../../../Screen Shot 2023-08-16 at 9.24.23 pm.png"  transform="matrix(1.6076 0 0 1.6076 155.4783 -17.802)">
</image>
<g>
	<g>
		<path class="st0" d="M519.7,203.5c-0.1-6.7-0.3-12.6-0.9-12.6c-1.2,0-1.3,10.6-1.4,12.6H515c-0.1-13.3-0.3-26.1-0.9-26.1
			c-1.2,0-1.3,22.2-1.4,26.1h-2.3c-0.1-19.2-0.3-37.8-0.9-37.8c-1.2,0-1.3,32.2-1.4,37.8h-2.3c-0.1-22.4-0.3-44.1-0.9-44.1
			c-1.2,0-1.3,37.6-1.4,44.1h-2.3c-0.1-25.6-0.3-50.9-0.9-50.9c-1.2,0-1.3,43.4-1.4,50.9h-2.3c-0.1-28.5-0.3-56.4-0.9-56.4
			c-1.2,0-1.3,48.1-1.4,56.4h-2.3c-0.1-28.5-0.3-56.4-0.9-56.4c-1.2,0-1.3,48.1-1.4,56.4h-2.3c-0.1-24.8-0.3-49.1-0.9-49.1
			c-1.2,0-1.3,41.9-1.4,49.1h-2.3c-0.1-20.1-0.3-39.7-0.9-39.7c-1.2,0-1.3,33.8-1.4,39.7h-2.3c-0.1-20.1-0.3-39.7-0.9-39.7
			c-1.2,0-1.3,33.8-1.4,39.7h-2.3c-0.1-24.2-0.3-47.8-0.9-47.8c-1.2,0-1.3,40.8-1.4,47.8h-2.3c-0.1-31-0.3-61.5-0.9-61.5
			c-1.2,0-1.3,52.4-1.4,61.5H464c-0.1-47.6-0.3-94.6-0.9-94.6c-1.2,0-1.3,80.7-1.4,94.6h-2.3c-0.1-55-0.3-109.5-0.9-109.5
			c-1.2,0-1.3,93.5-1.4,109.5h-2.3c-0.1-60.9-0.3-121.2-0.9-121.2c-1.2,0-1.3,103.5-1.4,121.2H450c-0.1-63-0.3-125.4-0.9-125.4
			c-1.2,0-1.3,107.1-1.4,125.4h-2.3c-0.1-66.5-0.3-132.5-0.9-132.5c-1.2,0-1.3,113.1-1.4,132.5h-2.3c-0.1-68.6-0.3-136.7-0.9-136.7
			c-1.2,0-1.3,116.7-1.4,136.7h-2.3c-0.1-68.6-0.3-136.7-0.9-136.7c-1.2,0-1.3,116.7-1.4,136.7h-2.3c-0.1-70.7-0.3-140.8-0.9-140.8
			c-1.2,0-1.3,120.3-1.4,140.8h-2.3C426.7,131,426.5,59,425.9,59c-1.2,0-1.3,123.4-1.4,144.5h-2.3C422,131,421.9,59,421.3,59
			c-1.2,0-1.3,123.4-1.4,144.5h-2.3c-0.1-70.7-0.3-140.8-0.9-140.8c-1.2,0-1.3,120.3-1.4,140.8h-2.3c-0.1-66-0.3-131.4-0.9-131.4
			c-1.2,0-1.3,112.2-1.4,131.4h-2.3c-0.1-39-0.3-77.3-0.9-77.3c-1.2,0-1.3,66-1.4,77.3h-2.3c-0.1-36.2-0.3-71.8-0.9-71.8
			c-1.2,0-1.3,61.3-1.4,71.8H399c-0.1-32.9-0.3-65.3-0.9-65.3c-1.2,0-1.3,55.7-1.4,65.3h-2.3c-0.1-34.2-0.3-67.9-0.9-67.9
			c-1.2,0-1.3,57.9-1.4,67.9h-2.3c-0.1-39-0.3-77.3-0.9-77.3c-1.2,0-1.3,66-1.4,77.3h-2.3c-0.1-44-0.3-87.5-0.9-87.5
			c-1.2,0-1.3,74.7-1.4,87.5h-2.3c-0.1-47.6-0.3-94.6-0.9-94.6c-1.2,0-1.3,80.7-1.4,94.6h-2.3c-0.1-47.6-0.3-94.6-0.9-94.6
			c-1.2,0-1.3,80.7-1.4,94.6h-2.3c-0.1-43-0.3-85.4-0.9-85.4c-1.2,0-1.3,72.9-1.4,85.4h-2.3c-0.1-39-0.3-77.3-0.9-77.3
			c-1.2,0-1.3,66-1.4,77.3h-2.3c-0.1-31.3-0.3-62-0.9-62c-1.2,0-1.3,52.9-1.4,62h-2.3c-0.1-23.1-0.3-45.5-0.9-45.5
			c-1.2,0-1.3,38.8-1.4,45.5h-2.3c-0.1-10.6-0.3-20.6-0.9-20.6c-1.2,0-1.3,17.6-1.4,20.6h-2.3c-0.1-6-0.3-11.4-0.9-11.4
			c-1.2,0-1.3,9.6-1.4,11.4h-2.3c-0.1-3.8-0.3-7-0.9-7c-1.2,0-1.3,5.9-1.4,7h-2.3c-0.1-3.8-0.3-7-0.9-7c-1.2,0-1.3,5.9-1.4,7H334
			c-0.1-3.8-0.3-7-0.9-7c-1.2,0-1.3,5.9-1.4,7h-2.3c-0.1-4.9-0.3-9.3-0.9-9.3c-1.2,0-1.3,7.9-1.4,9.3h-2.3c-0.1-4.9-0.3-9.3-0.9-9.3
			c-1.2,0-1.3,7.9-1.4,9.3h-2.3c-0.1-7.7-0.3-14.8-0.9-14.8c-1.2,0-1.3,12.6-1.4,14.8h-2.3c-0.1-9.5-0.3-18.9-0.9-18.9
			c-1.2,0-1.3,16.2-1.4,18.9h-2.3c-0.1-12.5-0.3-25.1-0.9-25.1c-1.2,0-1.3,21.4-1.4,25.1h-2.3c-0.1-15.1-0.3-30.1-0.9-30.1
			c-1.2,0-1.3,25.7-1.4,30.1h-2.3c-0.1-17.7-0.3-35.5-0.9-35.5c-1.2,0-1.3,30.3-1.4,35.5h-2.3c-0.1-19.2-0.3-38.4-0.9-38.4
			c-1.2,0-1.3,32.8-1.4,38.4h-2.3c-0.1-19.2-0.3-38.4-0.9-38.4c-1.2,0-1.3,32.8-1.4,38.4h-2.3c-0.1-19.2-0.3-38.4-0.9-38.4
			c-1.2,0-1.3,32.8-1.4,38.4"/>
	</g>
	<text transform="matrix(1 0 0 1 358.2724 20.6929)" class="st1 st2">Rectification</text>
</g>
<g>
	<path class="st0" d="M559.7,165.6c19.8,0,26.5,27.9,52.7,27.9c26.2,0,29.1-76.7,41.7-76.7c12.6,0,9.4,17.3,19.4,17.3
		c17.1,0,10.2-68.3,31.5-68.3c31.3,0,35.2,95.8,50.8,95.8c7.7,0,4-11.7,14.5-11.7c10.5,0,28,49.4,28,49.4"/>
	<text transform="matrix(1 0 0 1 616.9163 20.6929)" class="st1 st2">Low pass filtering</text>
</g>
<g>
	<path class="st0" d="M245.3,203.5c0,2.2-0.7,13.5-1.6,13.5c-0.5,0-0.6-6.7-0.7-13.5v0c-0.1-6.7-0.3-12.6-0.9-12.6
		c-1.2,0-1.3,10.6-1.4,12.6v-0.3c0,4.4-0.7,26.7-1.6,26.7c-0.5,0-0.6-13.3-0.7-26.7v0.3c-0.1-13.3-0.3-26.1-0.9-26.1
		c-1.2,0-1.3,22.2-1.4,26.1v-0.3c0,6.4-0.7,38.4-1.6,38.4c-0.5,0-0.6-19.2-0.7-38.4v0.3c-0.1-19.2-0.3-37.8-0.9-37.8
		c-1.2,0-1.3,32.2-1.4,37.8v-0.3c0,7.4-0.7,44.7-1.6,44.7c-0.5,0-0.6-22.4-0.7-44.7v0.3c-0.1-22.4-0.3-44.1-0.9-44.1
		c-1.2,0-1.3,37.6-1.4,44.1v-0.3c0,8-0.7,48.4-1.6,48.4c-0.5,0-0.6-24.2-0.7-48.4v0.3c-0.1-25.6-0.3-50.9-0.9-50.9
		c-1.2,0-1.3,43.4-1.4,50.9v-0.5c0,10-0.7,60.4-1.6,60.4c-0.5,0-0.6-30.2-0.7-60.4v0.5c-0.1-28.5-0.3-56.4-0.9-56.4
		c-1.2,0-1.3,48.1-1.4,56.4v-0.3c0,9.5-0.7,57-1.6,57c-0.5,0-0.6-28.5-0.7-57v0.3c-0.1-28.5-0.3-56.4-0.9-56.4
		c-1.2,0-1.3,48.1-1.4,56.4v-0.3c0,8.3-0.7,49.7-1.6,49.7c-0.5,0-0.6-24.8-0.7-49.7v0.3c-0.1-24.8-0.3-49.1-0.9-49.1
		c-1.2,0-1.3,41.9-1.4,49.1v-0.3c0,6.7-0.7,40.3-1.6,40.3c-0.5,0-0.6-20.1-0.7-40.3v0.3c-0.1-20.1-0.3-39.7-0.9-39.7
		c-1.2,0-1.3,33.8-1.4,39.7v-0.3c0,6.7-0.7,40.3-1.6,40.3c-0.5,0-0.6-20.1-0.7-40.3v0.3c-0.1-20.1-0.3-39.7-0.9-39.7
		c-1.2,0-1.3,33.8-1.4,39.7v-0.3c0,8-0.7,48.4-1.6,48.4c-0.5,0-0.6-24.2-0.7-48.4v0.3c-0.1-24.2-0.3-47.8-0.9-47.8
		c-1.2,0-1.3,40.8-1.4,47.8v-0.3c0,10.3-0.7,62-1.6,62c-0.5,0-0.6-31-0.7-62v0.3c-0.1-31-0.3-61.5-0.9-61.5
		c-1.2,0-1.3,52.4-1.4,61.5v-0.3c0,15.8-0.7,95.2-1.6,95.2c-0.5,0-0.6-47.6-0.7-95.2v0.3c-0.1-47.6-0.3-94.6-0.9-94.6
		c-1.2,0-1.3,80.7-1.4,94.6v-0.3c0,18.3-0.7,110.1-1.6,110.1c-0.5,0-0.6-55-0.7-110.1v0.3c-0.1-55-0.3-109.5-0.9-109.5
		c-1.2,0-1.3,93.5-1.4,109.5v-0.3c0,20.2-0.7,121.8-1.6,121.8c-0.5,0-0.6-60.9-0.7-121.8v0.3c-0.1-60.9-0.3-121.2-0.9-121.2
		c-1.2,0-1.3,103.5-1.4,121.2v-0.3c0,20.9-0.7,126-1.6,126c-0.5,0-0.6-63-0.7-126v0.3c-0.1-63-0.3-125.4-0.9-125.4
		c-1.2,0-1.3,107.1-1.4,125.4v-0.3c0,22.1-0.7,133.1-1.6,133.1c-0.5,0-0.6-66.5-0.7-133.1v0.3C168.6,137,168.4,71,167.8,71
		c-1.2,0-1.3,113.1-1.4,132.5v-0.3c0,22.8-0.7,137.2-1.6,137.2c-0.5,0-0.6-68.6-0.7-137.2v0.3c-0.1-68.6-0.3-136.7-0.9-136.7
		c-1.2,0-1.3,116.7-1.4,136.7v-0.3c0,22.8-0.7,137.2-1.6,137.2c-0.5,0-0.6-68.6-0.7-137.2v0.3c-0.1-68.6-0.3-136.7-0.9-136.7
		c-1.2,0-1.3,116.7-1.4,136.7v-0.3c0,23.5-0.7,141.4-1.6,141.4c-0.5,0-0.6-70.7-0.7-141.4v0.3c-0.1-70.7-0.3-140.8-0.9-140.8
		c-1.2,0-1.3,120.3-1.4,140.8v-0.3c0,24.1-0.7,145.1-1.6,145.1c-0.5,0-0.6-72.5-0.7-145.1v0.3C150,130.9,149.8,59,149.2,59
		c-1.2,0-1.3,123.4-1.4,144.5v-0.3c0,24.1-0.7,145.1-1.6,145.1c-0.5,0-0.6-72.5-0.7-145.1v0.3c-0.1-72.5-0.3-144.5-0.9-144.5
		c-1.2,0-1.3,123.4-1.4,144.5v-0.3c0,23.5-0.7,141.4-1.6,141.4c-0.5,0-0.6-70.7-0.7-141.4v0.3c-0.1-70.7-0.3-140.8-0.9-140.8
		c-1.2,0-1.3,120.3-1.4,140.8v-0.3c0,21.9-0.7,132-1.6,132c-0.5,0-0.6-66-0.7-132v0.3c-0.1-66-0.3-131.4-0.9-131.4
		c-1.2,0-1.3,112.2-1.4,131.4v-0.3c0,12.9-0.7,77.9-1.6,77.9c-0.5,0-0.6-39-0.7-77.9v0.3c-0.1-39-0.3-77.3-0.9-77.3
		c-1.2,0-1.3,66-1.4,77.3v-0.3c0,12-0.7,72.4-1.6,72.4c-0.5,0-0.6-36.2-0.7-72.4v0.3c-0.1-36.2-0.3-71.8-0.9-71.8
		c-1.2,0-1.3,61.3-1.4,71.8v-0.3c0,10.9-0.7,65.9-1.6,65.9c-0.5,0-0.6-32.9-0.7-65.9v0.3c-0.1-32.9-0.3-65.3-0.9-65.3
		c-1.2,0-1.3,55.7-1.4,65.3v-0.3c0,11.4-0.7,68.5-1.6,68.5c-0.5,0-0.6-34.2-0.7-68.5v0.3c-0.1-34.2-0.3-67.9-0.9-67.9
		c-1.2,0-1.3,57.9-1.4,67.9v-0.3c0,12.9-0.7,77.9-1.6,77.9c-0.5,0-0.6-39-0.7-77.9v0.3c-0.1-39-0.3-77.3-0.9-77.3
		c-1.2,0-1.3,66-1.4,77.3v-0.3c0,14.6-0.7,88.1-1.6,88.1c-0.5,0-0.6-44-0.7-88.1v0.3c-0.1-44-0.3-87.5-0.9-87.5
		c-1.2,0-1.3,74.7-1.4,87.5v-0.3c0,15.8-0.7,95.2-1.6,95.2c-0.5,0-0.6-47.6-0.7-95.2v0.3c-0.1-47.6-0.3-94.6-0.9-94.6
		c-1.2,0-1.3,80.7-1.4,94.6v-0.3c0,15.8-0.7,95.2-1.6,95.2c-0.5,0-0.6-47.6-0.7-95.2v0.3c-0.1-47.6-0.3-94.6-0.9-94.6
		c-1.2,0-1.3,80.7-1.4,94.6v-0.3c0,14.3-0.7,86-1.6,86c-0.5,0-0.6-43-0.7-86v0.3c-0.1-43-0.3-85.4-0.9-85.4
		c-1.2,0-1.3,72.9-1.4,85.4v-0.3c0,12.9-0.7,77.9-1.6,77.9c-0.5,0-0.6-39-0.7-77.9v0.3c-0.1-39-0.3-77.3-0.9-77.3
		c-1.2,0-1.3,66-1.4,77.3v-0.3c0,10.4-0.7,62.6-1.6,62.6c-0.5,0-0.6-31.3-0.7-62.6v0.3c-0.1-31.3-0.3-62-0.9-62
		c-1.2,0-1.3,52.9-1.4,62v-0.3c0,7.7-0.7,46.1-1.6,46.1c-0.5,0-0.6-23.1-0.7-46.1v0.3c-0.1-23.1-0.3-45.5-0.9-45.5
		c-1.2,0-1.3,38.8-1.4,45.5v-0.3c0,3.5-0.7,21.2-1.6,21.2c-0.5,0-0.6-10.6-0.7-21.2v0.3c-0.1-10.6-0.3-20.6-0.9-20.6
		c-1.2,0-1.3,17.6-1.4,20.6v-0.3c0,2-0.7,12-1.6,12c-0.5,0-0.6-6-0.7-12v0.3c-0.1-6-0.3-11.4-0.9-11.4c-1.2,0-1.3,9.6-1.4,11.4v-0.3
		c0,1.3-0.7,7.6-1.6,7.6c-0.5,0-0.6-3.8-0.7-7.6v0.3c-0.1-3.8-0.3-7-0.9-7c-1.2,0-1.3,5.9-1.4,7v-0.3c0,1.3-0.7,7.6-1.6,7.6
		c-0.5,0-0.6-3.8-0.7-7.6v0.3c-0.1-3.8-0.3-7-0.9-7c-1.2,0-1.3,5.9-1.4,7v-0.3c0,1.3-0.7,7.6-1.6,7.6c-0.5,0-0.6-3.8-0.7-7.6v0.3
		c-0.1-3.8-0.3-7-0.9-7c-1.2,0-1.3,5.9-1.4,7v-0.3c0,1.6-0.7,9.9-1.6,9.9c-0.5,0-0.6-4.9-0.7-9.9v0.3c-0.1-4.9-0.3-9.3-0.9-9.3
		c-1.2,0-1.3,7.9-1.4,9.3v-0.3c0,1.6-0.7,9.9-1.6,9.9c-0.5,0-0.6-4.9-0.7-9.9v0.3c-0.1-4.9-0.3-9.3-0.9-9.3c-1.2,0-1.3,7.9-1.4,9.3
		v-0.3c0,2.6-0.7,15.4-1.6,15.4c-0.5,0-0.6-7.7-0.7-15.4v0.3c-0.1-7.7-0.3-14.8-0.9-14.8c-1.2,0-1.3,12.6-1.4,14.8v-0.9
		c0,3.1-0.7,18.9-1.6,18.9c-0.5,0-0.6-9.5-0.7-18.9v0.9c-0.1-9.5-0.3-18.9-0.9-18.9c-1.2,0-1.3,16.2-1.4,18.9v-0.9
		c0,4.2-0.7,25.1-1.6,25.1c-0.5,0-0.6-12.5-0.7-25.1v0.9c-0.1-12.5-0.3-25.1-0.9-25.1c-1.2,0-1.3,21.4-1.4,25.1v-0.9
		c0,5-0.7,30.1-1.6,30.1c-0.5,0-0.6-15.1-0.7-30.1v0.9c-0.1-15.1-0.3-30.1-0.9-30.1c-1.2,0-1.3,25.7-1.4,30.1v-0.9
		c0,5.9-0.7,35.5-1.6,35.5c-0.5,0-0.6-17.7-0.7-35.5v0.9c-0.1-17.7-0.3-35.5-0.9-35.5c-1.2,0-1.3,30.3-1.4,35.5v-0.9
		c0,6.4-0.7,38.4-1.6,38.4c-0.5,0-0.6-19.2-0.7-38.4v0.9c-0.1-19.2-0.3-38.4-0.9-38.4c-1.2,0-1.3,32.8-1.4,38.4v-0.9
		c0,6.4-0.7,38.4-1.6,38.4c-0.5,0-0.6-19.2-0.7-38.4v0.9c-0.1-19.2-0.3-38.4-0.9-38.4c-1.2,0-1.3,32.8-1.4,38.4v-0.9
		c0,6.4-0.7,38.4-1.6,38.4c-0.5,0-0.6-19.2-0.7-38.4v0.9c-0.1-19.2-0.3-38.4-0.9-38.4c-1.2,0-1.3,32.8-1.4,38.4"/>
	<text transform="matrix(1 0 0 1 71.6312 20.6929)" class="st1 st2">Original Signal</text>
</g>
</svg>
