<?xml version="1.0" encoding="utf-8"?>
<!-- Generator: Adobe Illustrator 27.5.0, SVG Export Plug-In . SVG Version: 6.00 Build 0)  -->
<svg version="1.1" id="Layer_1" xmlns="http://www.w3.org/2000/svg" xmlns:xlink="http://www.w3.org/1999/xlink" x="0px" y="0px"
	 width="357.5px" height="288.4px" viewBox="0 0 357.5 288.4" style="enable-background:new 0 0 357.5 288.4;" xml:space="preserve"
	>
<style type="text/css">
	.st0{fill:none;stroke:#E01717;stroke-miterlimit:10;}
	.st1{fill:none;stroke:#23D000;stroke-miterlimit:10;}
	.st2{fill:none;stroke:#FFC517;stroke-miterlimit:10;}
</style>
<image style="overflow:visible;" width="716" height="577" xlink:href="13492A38520C754.png"  transform="matrix(0.5 0 0 0.5 -0.4073 -5.758734e-02)">
</image>
<path class="st0" d="M38.3,248.2c0,0,10.3-64,12.1-78c1.8-14,12.9-151.5,17.3-151.5c4.4,0,9.9,68.8,19.1,103.3S110,206,192.4,225.8
	s142.3,25,142.3,25"/>
<path class="st1" d="M38.3,248.2c0,0,20.1-38,33.1-67.7c32.7-74.6,52.2-161.8,70.6-161.8s41.1,64.6,58.8,94.3s51.9,72.7,90.5,102.8
	s43.4,34.9,43.4,34.9"/>
<line class="st2" x1="38.3" y1="134.8" x2="228.1" y2="134.8"/>
</svg>
